<?xml version="1.0" encoding="UTF-8" standalone="no"?>
<!-- Created with Inkscape (http://www.inkscape.org/) -->

<svg
   width="210mm"
   height="297mm"
   viewBox="0 0 210 297"
   version="1.1"
   id="svg5"
   xml:space="preserve"
   inkscape:version="1.2.2 (b0a8486541, 2022-12-01)"
   sodipodi:docname="artwork.svg"
   xmlns:inkscape="http://www.inkscape.org/namespaces/inkscape"
   xmlns:sodipodi="http://sodipodi.sourceforge.net/DTD/sodipodi-0.dtd"
   xmlns="http://www.w3.org/2000/svg"
   xmlns:svg="http://www.w3.org/2000/svg"><sodipodi:namedview
     id="namedview7"
     pagecolor="#ffffff"
     bordercolor="#000000"
     borderopacity="0.25"
     inkscape:showpageshadow="2"
     inkscape:pageopacity="0.0"
     inkscape:pagecheckerboard="0"
     inkscape:deskcolor="#d1d1d1"
     inkscape:document-units="mm"
     showgrid="false"
     inkscape:zoom="2.587745"
     inkscape:cx="388.17581"
     inkscape:cy="507.5848"
     inkscape:window-width="3374"
     inkscape:window-height="1371"
     inkscape:window-x="0"
     inkscape:window-y="0"
     inkscape:window-maximized="1"
     inkscape:current-layer="layer1" /><defs
     id="defs2"><filter
       style="color-interpolation-filters:sRGB;"
       inkscape:label="Blur"
       id="filter3110"
       x="-0.029787076"
       y="-0.024965361"
       width="1.0595742"
       height="1.0499307"><feGaussianBlur
         stdDeviation="1 1"
         result="fbSourceGraphic"
         id="feGaussianBlur3108" /><feColorMatrix
         result="fbSourceGraphicAlpha"
         in="fbSourceGraphic"
         values="0 0 0 -1 0 0 0 0 -1 0 0 0 0 -1 0 0 0 0 1 0"
         id="feColorMatrix3838" /><feGaussianBlur
         id="feGaussianBlur3840"
         stdDeviation="1 1"
         result="blur"
         in="fbSourceGraphic" /></filter><filter
       style="color-interpolation-filters:sRGB;"
       inkscape:label="Blur"
       id="filter7640"
       x="-0.015579248"
       y="-0.11922795"
       width="1.0311585"
       height="1.2384559"><feGaussianBlur
         stdDeviation="0.4 0.4"
         result="blur"
         id="feGaussianBlur7638" /></filter></defs><g
     inkscape:label="Layer 1"
     inkscape:groupmode="layer"
     id="layer1"><path
       style="fill:#482219;fill-opacity:1;stroke-width:0.264583;filter:url(#filter3110)"
       d="m 105.47357,257.57987 c 1.20745,-0.0491 3.11245,-0.0489 4.23333,5.3e-4 1.12088,0.0495 0.13296,0.0897 -2.19538,0.0893 -2.32833,-2.7e-4 -3.24541,-0.0408 -2.03795,-0.0899 z m 46.15964,-38.29982 -0.60056,-0.52917 -0.0647,-8.86354 -0.0647,-8.86354 0.34004,-0.59532 0.34004,-0.59531 h 8.81855 8.81855 l 0.64211,0.50509 0.64211,0.50509 0.0364,8.67519 c 0.02,4.77136 -0.0697,8.87352 -0.19944,9.11592 -0.47695,0.8912 -1.61606,1.01723 -9.90955,1.09645 l -8.19826,0.0783 z m -64.567033,-0.16196 c -4.40878,-0.73423 -7.90204,-4.43329 -8.53757,-9.04053 -0.310763,-2.25281 -0.301193,-2.31149 0.86088,-5.27917 1.8846,-4.81289 6.95217,-6.9478 12.4219,-5.23322 0.92247,0.28917 1.74355,0.52729 1.82463,0.52917 0.0811,0.002 0.70333,-0.75372 1.3828,-1.67911 1.36246,-1.85557 5.473173,-5.89703 7.735193,-7.60487 0.79762,-0.60221 1.4625,-1.11039 1.4775,-1.12929 0.015,-0.0189 0.11382,-2.65373 0.21961,-5.85519 0.10579,-3.20146 0.2856,-6.03116 0.39959,-6.28823 l 0.20725,-0.4674 -7.051513,0.0705 -7.05151,0.0705 -0.0781,1.98536 c -0.0429,1.09194 -0.22118,2.2528 -0.39612,2.57968 l -0.31807,0.59433 h -0.88434 c -0.48638,0 -1.03542,-0.18204 -1.22007,-0.40454 l -0.33574,-0.40454 0.15817,-2.24129 0.15817,-2.24129 h -8.28237 -8.282363 l -0.89903,-0.60448 c -1.34162,-0.90206 -1.52866,-1.79312 -1.54555,-7.36308 l -0.0149,-4.92485 -3.77031,0.10628 c -2.38115,0.0671 -4.33602,0.2658 -5.3057,0.53923 -1.88223,0.53072 -2.69593,0.30612 -3.57119,-0.98576 l -0.62503,-0.92255 0.14464,-0.92604 c 0.35143,-2.25004 3.70477,-3.14553 4.92551,-1.31533 0.0728,0.10909 1.948,0.24212 4.16719,0.29562 l 4.03489,0.0973 v -13.55521 -13.55522 l -4.69635,0.16012 -4.69635,0.16013 -0.54622,0.49484 c -1.7491,1.58458 -4.87774,-0.007 -4.87774,-2.48097 v -0.89394 l 0.81124,-0.7771 0.81124,-0.77711 1.15675,0.025 c 0.63622,0.0137 1.4739,0.23278 1.86151,0.48676 l 0.70476,0.46177 4.27256,-0.0789 c 2.34991,-0.0434 4.45116,-0.0243 4.66944,0.0424 l 0.39687,0.12129 0.0687,-12.89844 c 0.0607,-11.40025 -0.0433,-13.97985 -0.50963,-12.64623 -0.0485,0.13871 -1.9932,0.33214 -4.32153,0.42984 l -4.23333,0.17764 -0.71827,0.66905 -0.71826,0.66905 -1.17853,0.0256 -1.17854,0.0256 -0.67521,-0.63422 c -0.37137,-0.34882 -0.80927,-1.04043 -0.97313,-1.53692 l -0.29791,-0.90269 0.32605,-0.78716 c 0.72554,-1.75161 2.75681,-2.35714 4.35546,-1.29839 0.88778,0.58795 1.79644,0.63439 6.96992,0.35622 l 3.21654,-0.17293 V 90.625421 78.865661 l 0.87641,-0.876403 0.8764,-0.876401 30.459906,-0.02024 30.45991,-0.02024 0.87671,0.713753 c 3.44113,2.801522 15.00723,14.013041 20.75565,20.119343 l 3.80127,4.037917 v 6.8331 c 0,3.7582 0.0784,10.23229 0.17419,14.38687 l 0.1742,7.55378 3.75504,0.18772 3.75506,0.18771 1.08729,-0.5547 c 1.49892,-0.76469 2.44773,-0.7146 3.27551,0.17291 1.43839,1.54219 1.6702,3.01381 0.65977,4.18851 l -0.61269,0.71229 h -1.08844 c -0.69864,0 -1.5147,-0.2498 -2.2787,-0.69754 l -1.19025,-0.69753 h -3.85533 -3.85531 l 0.10978,11.8401 c 0.0604,6.51206 0.11984,12.52471 0.13212,13.36146 l 0.0223,1.52135 h 0.37798 c 0.20788,0 0.53531,0.14883 0.7276,0.33073 0.73548,0.69573 2.31099,1.78594 2.58093,1.78594 0.15523,0 0.28224,0.12708 0.28224,0.28241 0,0.46733 1.14872,-0.0168 1.67571,-0.70615 0.2668,-0.34903 0.64896,-0.63459 0.84923,-0.63459 0.20028,0 0.80277,-0.47407 1.33886,-1.05348 1.17113,-1.26576 2.30909,-1.56977 3.52409,-0.94147 1.88381,0.97415 2.4376,3.32266 1.09913,4.66113 l -0.7734,0.7734 -1.14483,-0.002 c -1.12562,-0.002 -2.26525,-0.53626 -2.9349,-1.37661 l -0.3266,-0.40984 -1.5875,0.21031 c -0.87312,0.11567 -2.50031,0.22036 -3.61597,0.23264 -2.48119,0.0273 -2.29284,-0.4981 -2.14208,5.97545 l 0.12324,5.29167 -0.79125,0.92604 -0.79124,0.92604 -7.23926,0.0809 -7.23927,0.0809 0.0638,3.6233 c 0.0351,1.99281 0.13677,4.75439 0.22592,6.13683 l 0.1621,2.51354 0.9647,0.84612 c 0.53059,0.46537 1.7592,1.53693 2.73026,2.38125 2.41794,2.10239 5.46421,5.49194 5.66898,6.30783 0.21232,0.84595 -0.41279,1.58848 -1.52447,1.81081 l -0.80975,0.16195 -3.74078,-3.47408 c -4.59139,-4.26405 -6.09231,-5.84905 -6.70629,-7.08192 l -0.47407,-0.95185 -0.0837,-6.15156 -0.0837,-6.15156 -6.66314,-2.4e-4 -6.66313,-2.5e-4 0.0857,4.29972 0.0857,4.29973 0.54294,0.92604 c 0.29861,0.50932 0.55556,1.36696 0.57099,1.90587 l 0.0281,0.97983 -0.77231,0.80611 -0.7723,0.8061 h -0.94996 c -2.29841,0 -3.71321,-2.26982 -2.75367,-4.41783 l 0.44945,-1.00612 0.0392,-3.57188 c 0.0216,-1.96453 0.12958,-3.88131 0.24004,-4.25952 l 0.20084,-0.68765 -6.69939,-0.14717 c -3.68466,-0.0809 -6.71597,-0.12869 -6.73625,-0.1061 -0.0203,0.0226 0.0738,2.82465 0.20918,6.22681 l 0.24605,6.18573 -0.49916,1.00889 -0.49916,1.00888 3.90804,3.82627 c 2.14942,2.10444 4.09839,4.19436 4.33104,4.64426 l 0.423,0.818 1.3829,-0.77801 c 5.79526,-3.26038 13.53268,-0.0232 15.16396,6.34436 l 0.43805,1.70985 -0.1715,1.84529 c -0.42623,4.58599 -3.44014,8.00735 -7.9346,9.00727 l -1.94741,0.43326 -1.55363,-0.28633 c -4.82936,-0.89002 -8.20872,-4.6191 -8.48998,-9.36856 l -0.12778,-2.15782 0.58606,-2.11667 c 0.32234,-1.16416 0.64518,-2.3229 0.71742,-2.57497 0.0901,-0.3145 -0.0804,-0.53883 -0.54365,-0.71494 -0.37125,-0.14115 -0.80181,-0.49358 -0.9568,-0.78319 -0.35531,-0.6639 -6.19702,-6.92438 -6.74992,-7.2338 -0.70103,-0.39232 -3.10367,1.47012 -6.498463,5.03735 l -3.16771,3.32861 0.40433,0.54443 c 0.22237,0.29944 0.7277,1.19927 1.12296,1.99964 l 0.71864,1.45521 -0.004,2.64583 -0.004,2.64583 -0.70039,1.50155 c -1.37018,2.93751 -3.78099,4.84406 -7.12071,5.63128 -0.93328,0.21998 -1.81593,0.38782 -1.96145,0.37296 -0.14553,-0.0149 -0.89249,-0.1316 -1.65994,-0.25941 z m 2.94903,-4.45399 c 1.29778,-0.3011 2.64065,-1.59579 3.52054,-3.39422 l 0.68603,-1.4022 -0.14465,-1.5953 c -0.18709,-2.06326 -1.01001,-3.318 -2.82339,-4.30496 l -1.38408,-0.75331 -1.66449,0.10598 -1.66449,0.10599 -0.95191,0.72605 c -5.0035,3.81636 -1.59573,11.90918 4.42644,10.51197 z m 35.501163,-0.69391 c 3.94341,-2.56434 3.85273,-7.99404 -0.16696,-9.99713 -4.04163,-2.01403 -8.25052,1.08317 -7.86066,5.78441 l 0.12201,1.47133 0.77122,1.09489 c 1.05268,1.4945 2.69597,2.32615 4.59632,2.32615 h 1.49292 z m 11.42321,-43.5707 14.08223,-0.0674 -0.12147,-6.08542 c -0.0668,-3.34697 -0.12326,-17.71305 -0.12546,-31.9246 l -0.004,-25.83919 -10.3849,0.14455 -10.38489,0.14455 -0.52917,-0.59305 -0.52917,-0.59304 0.079,-11.018567 0.079,-11.018564 H 102.2328 75.364784 l -7e-5,41.565811 c -3e-5,22.86119 0.0783,42.49274 0.17406,43.62567 l 0.17412,2.05986 23.572233,-0.16665 c 12.964723,-0.0916 29.909233,-0.19696 37.654453,-0.234 z m -30.44327,-13.4067 -15.567293,-0.15441 -0.63844,-0.74236 c -0.77231,-0.89803 -0.81234,-1.74331 -0.124,-2.61839 l 0.51443,-0.654 9.20901,-0.15083 c 9.320183,-0.15266 25.455723,0.1466 28.126713,0.52166 l 1.45521,0.20434 0.0891,0.63005 c 0.12382,0.87557 -0.74978,2.41618 -1.54424,2.7233 -0.97049,0.37516 -4.25553,0.4119 -21.52049,0.24064 z m -16.209163,-10.4467 c -1.10254,-1.10254 -1.13444,-1.81668 -0.12618,-2.82493 l 0.77339,-0.7734 h 3.5553 c 1.95542,0 4.09822,-0.0744 4.7618,-0.16537 l 1.206503,-0.16537 0.68251,0.68251 c 0.48241,0.4824 0.68251,0.96351 0.68251,1.64093 v 0.95842 l -0.7734,0.7734 -0.77339,0.77339 h -4.544733 -4.54472 z m 22.426363,0.635 -4.05843,-0.13229 -0.63792,-0.74236 c -1.21082,-1.40903 -0.36636,-3.69628 1.36331,-3.69255 0.42728,7.9e-4 3.57486,0.0955 6.99459,0.21024 l 6.21771,0.20857 0.8599,0.85711 c 0.99946,0.99623 1.14127,2.16088 0.35026,2.87673 l -0.50964,0.46121 -3.26068,0.0428 c -1.79337,0.0235 -5.08696,-0.0167 -7.3191,-0.0895 z m -21.331623,-9.22645 c -1.70309,-0.36506 -2.42832,-2.42958 -1.25002,-3.55847 l 0.7443,-0.71308 11.411853,0.0745 11.41186,0.0745 0.64929,0.60997 c 0.80326,0.75462 0.98532,1.60934 0.55885,2.6236 l -0.32678,0.7772 -0.85595,0.17119 c -1.09199,0.21839 -21.297993,0.16465 -22.343403,-0.0594 z m 30.390673,-0.66897 c -1.07964,-1.07964 -1.1115,-1.45379 -0.2146,-2.51969 l 0.68498,-0.81406 h 5.37303 5.37303 l 0.82116,0.93525 c 0.96328,1.09712 1.02121,1.64948 0.27278,2.60095 l -0.54837,0.69714 h -5.43121 -5.43121 z m -26.855393,-9.67054 c -4.58983,-0.16179 -4.80959,-0.24086 -5.30989,-1.91072 l -0.31189,-1.04099 0.71383,-0.71356 0.71382,-0.71356 4.74593,0.0349 c 5.367133,0.0394 5.866383,0.11446 6.423823,0.96523 1.18779,1.81279 0.14546,3.70486 -1.970643,3.57715 -0.48251,-0.0291 -2.73476,-0.11841 -5.00498,-0.19843 z m 27.543313,0.0825 c -1.58901,-0.26791 -1.86564,-0.41276 -2.26568,-1.18634 -0.49348,-0.9543 -0.36355,-1.71838 0.43866,-2.57945 l 0.5747,-0.61687 6.21266,0.14141 6.21266,0.14142 0.63121,0.59299 c 0.82846,0.7783 0.86651,2.3222 0.0749,3.03943 l -0.55628,0.50403 -5.3307,0.0375 c -2.93188,0.0206 -5.62835,-0.0127 -5.99215,-0.0741 z m -13.48575,-0.43413 c -0.3594,-0.18186 -0.83172,-0.64825 -1.0496,-1.03642 l -0.39613,-0.70577 0.25868,-0.74562 c 0.15066,-0.43425 0.6442,-0.94493 1.18189,-1.22292 l 0.9232,-0.47731 1.5875,0.16559 c 2.56654,0.26772 3.76724,2.31346 2.24896,3.83174 l -0.52917,0.52916 -1.78593,-0.004 c -0.98227,-0.002 -2.08,-0.1527 -2.4394,-0.33456 z m -7.05531,-10.17541 -1.62335,-0.0932 -0.480093,-0.53048 c -0.613,-0.67736 -0.61268,-2.0181 8e-4,-2.95023 l 0.477913,-0.72627 9.56159,0.16222 9.56159,0.16222 0.58295,0.36361 c 1.16227,0.72495 1.09964,3.10408 -0.0936,3.55777 -0.60594,0.23038 -14.2038,0.27144 -17.98765,0.0543 z M 90.471407,106.37508 c -0.34978,-0.18518 -0.86824,-0.64966 -1.15215,-1.03216 l -0.51619,-0.69547 0.44499,-0.93773 c 0.27363,-0.57663 0.8036,-1.10791 1.37626,-1.37966 l 0.93128,-0.44192 1.23109,0.17616 c 1.8849,0.26971 3.7168,0.24635 8.904003,-0.11354 2.61938,-0.18173 6.15605,-0.27635 7.85927,-0.21027 l 3.09677,0.12016 0.69564,0.4558 c 1.42562,0.9341 1.79715,3.24106 0.62315,3.86937 l -0.55121,0.29499 -1.65015,-0.28736 c -3.15403,-0.54925 -16.835513,-0.29038 -19.995343,0.37834 -0.3638,0.077 -0.94764,-0.0115 -1.29741,-0.19671 z m 55.871303,-5.98913 c 0.11328,-0.11328 -0.13799,-0.673757 -0.55837,-1.245517 -0.98967,-1.34604 -9.80244,-10.43226 -10.1183,-10.43226 -0.23198,0 -0.36074,11.697677 -0.1313,11.928297 0.1996,0.20063 10.59785,-0.0404 10.80797,-0.25052 z m 34.55703,111.70829 c -1.56343,-0.98504 -1.97342,-3.10771 -0.91287,-4.72632 1.29139,-1.9709 4.38246,-0.33778 4.38512,2.3168 l 10e-4,0.98802 -0.72761,0.78848 c -0.91387,0.99033 -1.83971,1.20378 -2.74563,0.63302 z M 87.729787,190.88051 c -1.07984,-0.71204 -1.4995,-1.38681 -1.50782,-2.42442 -0.023,-2.86249 3.05753,-3.91186 4.99747,-1.70239 l 0.81396,0.92705 v 0.9433 0.94329 l -0.89958,0.89958 -0.89958,0.89958 -0.88636,-0.002 c -0.48749,-0.001 -1.21563,-0.21887 -1.61809,-0.48425 z m -55.868733,-17.02417 -0.73364,-0.63105 0.037,-8.66366 c 0.0203,-4.76501 0.10776,-8.84814 0.19429,-9.07362 0.28316,-0.73791 1.18211,-0.80194 9.13837,-0.65094 l 7.86261,0.14923 0.46126,0.46196 0.46127,0.46197 -0.0489,8.91095 -0.0489,8.91095 -0.33749,0.21417 c -0.18562,0.1178 -3.49265,0.21732 -7.34895,0.22115 -3.8563,0.004 -7.43712,0.0774 -7.95738,0.16345 l -0.94591,0.15649 z M 178.88791,168.4139 c -0.11191,-0.40018 -0.1791,-3.34463 -0.14931,-6.54322 l 0.0542,-5.81563 0.45071,-0.32956 0.4507,-0.32956 5.55296,0.052 5.55295,0.052 0.63675,0.50087 0.63676,0.50088 -0.08,5.94476 -0.08,5.94477 -0.51359,0.37514 -0.51359,0.37514 h -5.89751 -5.89752 z M 37.000064,139.48739 c -2.5909,-1.17144 -3.98105,-3.25231 -4.17697,-6.25236 -0.23094,-3.53622 0.64972,-5.44406 3.15297,-6.83051 l 1.42088,-0.78697 2.11666,0.005 2.11667,0.005 1.05833,0.56755 c 1.40336,0.75257 2.6262,2.0639 3.28651,3.52434 l 0.53833,1.19062 0.006,2.14955 c 0.0129,4.76243 -1.99461,6.96696 -6.3442,6.96696 h -1.98437 z m 145.180236,0.29499 c -2.82894,-0.548 -4.3381,-5.07562 -3.39861,-10.19608 l 0.29127,-1.5875 0.84888,-0.72327 c 0.46688,-0.39779 1.43359,-0.91747 2.14823,-1.15484 l 1.29936,-0.43157 2.43308,0.10641 2.43309,0.10642 1.2264,0.71871 c 2.2982,1.34684 3.0495,3.35036 2.74447,7.31873 -0.22986,2.99046 -0.52867,3.99255 -1.45521,4.88022 l -0.7739,0.74145 -2.73604,0.22661 c -3.15056,0.26094 -3.68958,0.26037 -5.06102,-0.005 z M 36.535154,110.97295 c -3.63931,-1.04855 -5.12435,-8.21558 -2.38973,-11.533157 2.76649,-3.35623 9.8521,-2.42344 11.46056,1.508727 l 0.45859,1.12111 0.12801,3.83646 0.12801,3.83646 -0.57842,0.7276 -0.57843,0.72761 -4.01569,-0.0264 c -2.20863,-0.0145 -4.28444,-0.1038 -4.6129,-0.19844 z m 142.541656,-0.44139 -0.39237,-0.47211 -0.0806,-5.80242 c -0.0542,-3.90216 0.0136,-5.915897 0.20693,-6.148917 l 0.28757,-0.3465 5.40287,-0.19293 c 6.1191,-0.21852 6.58546,-0.15847 7.14304,0.91977 l 0.40168,0.77678 v 5.285907 5.2859 l -0.41577,0.41578 -0.41577,0.41577 h -3.51233 c -1.93178,0 -4.57444,0.0754 -5.87258,0.16754 l -2.36025,0.16753 z m -12.90546,-3.69407 c -2.1352,-1.79665 -1.45548,-5.05654 1.16356,-5.58035 l 0.80217,-0.16043 0.85141,0.71642 c 1.74941,1.47203 2.13216,3.45102 0.94118,4.86641 l -0.68498,0.81405 h -1.14681 -1.1468 z M 37.926104,84.546376 l -5.82083,-0.07163 -0.46302,-0.558429 -0.46302,-0.558433 v -8.386783 -8.386786 l 0.37527,-0.51359 0.37526,-0.513591 8.04203,-0.07692 8.04203,-0.07691 0.71793,0.564729 0.71794,0.564729 -0.05,8.133188 c -0.0275,4.473252 0.0297,8.262104 0.12708,8.419671 0.0974,0.157565 0.0601,0.59413 -0.0829,0.970143 l -0.25993,0.683662 -2.71852,-0.06071 c -1.49519,-0.03339 -5.33791,-0.09294 -8.53936,-0.132339 z m 19.18886,-4.239133 c -0.61497,-0.309406 -1.03961,-0.7821 -1.28222,-1.427329 l -0.36274,-0.964719 0.458,-0.965165 c 1.56259,-3.292919 6.27418,-1.121688 4.87837,2.24809 -0.64458,1.556163 -1.99589,1.962177 -3.69141,1.109123 z"
       id="path2671"
       transform="matrix(0.30613775,0,0,0.30613775,68.845662,84.732464)" /><path
       style="fill:#f5b159;fill-opacity:1;stroke-width:0.0809988"
       d="m 101.55529,164.22302 c 0.36964,-0.015 0.95284,-0.0149 1.29598,1.7e-4 0.34314,0.0151 0.0407,0.0274 -0.67209,0.0273 -0.71279,-8e-5 -0.99354,-0.0125 -0.62389,-0.0275 z m 14.13121,-11.72502 -0.18385,-0.162 -0.0198,-2.71346 -0.0198,-2.71346 0.1041,-0.18225 0.1041,-0.18225 h 2.69969 2.69969 l 0.19657,0.15463 0.19658,0.15462 0.0112,2.65581 c 0.006,1.46069 -0.0213,2.71652 -0.0611,2.79072 -0.14601,0.27284 -0.49474,0.31142 -3.03369,0.33567 l -2.50979,0.024 z m -19.766408,-0.0496 c -1.34969,-0.22477 -2.41911,-1.3572 -2.61367,-2.76765 -0.0951,-0.68967 -0.0922,-0.70763 0.26355,-1.61615 0.57694,-1.47341 2.12832,-2.12698 3.80281,-1.60209 0.2824,0.0885 0.53377,0.16143 0.55859,0.162 0.0248,7.7e-4 0.21531,-0.23074 0.42332,-0.51404 0.41711,-0.56806 1.675548,-1.8053 2.368038,-2.32813 0.24418,-0.18436 0.44772,-0.33993 0.45232,-0.34572 0.005,-0.006 0.0348,-0.81241 0.0672,-1.7925 0.0324,-0.98008 0.0874,-1.84636 0.12233,-1.92506 l 0.0634,-0.14309 -2.158738,0.0216 -2.15873,0.0216 -0.0239,0.60779 c -0.0132,0.33428 -0.0677,0.68967 -0.12127,0.78974 l -0.0974,0.18195 h -0.27073 c -0.14889,0 -0.31698,-0.0557 -0.37351,-0.12385 l -0.10278,-0.12384 0.0484,-0.68615 0.0484,-0.68614 h -2.53554 -2.53554 l -0.27523,-0.18505 c -0.41072,-0.27616 -0.46798,-0.54895 -0.47315,-2.25412 l -0.005,-1.50768 -1.15423,0.0325 c -0.72896,0.0205 -1.32742,0.0814 -1.62428,0.16508 -0.57622,0.16247 -0.82532,0.0937 -1.09327,-0.30178 l -0.19135,-0.28243 0.0443,-0.28349 c 0.10759,-0.68882 1.13417,-0.96297 1.50789,-0.40267 0.0223,0.0334 0.59635,0.0741 1.27573,0.0905 l 1.23523,0.0298 v -4.14976 -4.14976 l -1.43773,0.049 -1.43773,0.049 -0.16721,0.15149 c -0.53547,0.4851 -1.49327,-0.002 -1.49327,-0.75951 v -0.27367 l 0.24836,-0.2379 0.24835,-0.23791 0.35412,0.008 c 0.19477,0.004 0.45122,0.0713 0.56988,0.14901 l 0.21575,0.14137 1.308,-0.0241 c 0.71939,-0.0133 1.36266,-0.007 1.42949,0.013 l 0.12149,0.0371 0.021,-3.94869 c 0.0186,-3.49005 -0.0133,-4.27976 -0.15602,-3.87149 -0.0148,0.0425 -0.61019,0.10168 -1.32298,0.13159 l -1.29599,0.0544 -0.21988,0.20482 -0.21989,0.20482 -0.36079,0.008 -0.3608,0.008 -0.20671,-0.19417 c -0.11369,-0.10678 -0.24775,-0.31851 -0.29791,-0.4705 l -0.0912,-0.27635 0.0998,-0.24098 c 0.22211,-0.53623 0.84396,-0.72161 1.33337,-0.39749 0.27178,0.18 0.54995,0.19421 2.13375,0.10905 l 0.98471,-0.0529 v -3.6001 -3.60011 l 0.2683,-0.2683 0.2683,-0.2683 9.324928,-0.006 9.32492,-0.006 0.2684,0.2185 c 1.05346,0.85765 4.59428,4.28992 6.35409,6.15929 l 1.16371,1.23616 v 2.09187 c 0,1.15053 0.024,3.13249 0.0533,4.40437 l 0.0533,2.31249 1.14955,0.0575 1.14957,0.0575 0.33286,-0.16982 c 0.45888,-0.2341 0.74934,-0.21876 1.00276,0.0529 0.44034,0.47213 0.51131,0.92265 0.20198,1.28227 l -0.18757,0.21805 h -0.33321 c -0.21388,0 -0.46371,-0.0765 -0.6976,-0.21354 l -0.36438,-0.21354 h -1.18026 -1.18026 l 0.0336,3.62471 c 0.0185,1.99358 0.0367,3.83428 0.0404,4.09044 l 0.007,0.46574 h 0.11572 c 0.0636,0 0.16388,0.0456 0.22274,0.10125 0.22516,0.21299 0.70748,0.54675 0.79012,0.54675 0.0475,0 0.0864,0.0389 0.0864,0.0864 0,0.14307 0.35167,-0.005 0.513,-0.21618 0.0817,-0.10685 0.19868,-0.19427 0.25999,-0.19427 0.0613,0 0.24575,-0.14513 0.40987,-0.32251 0.35853,-0.38749 0.7069,-0.48057 1.07886,-0.28822 0.5767,0.29823 0.74624,1.01719 0.33648,1.42695 l -0.23676,0.23677 -0.35048,-7.7e-4 c -0.34459,-7.7e-4 -0.69348,-0.16417 -0.89848,-0.42143 l -0.1,-0.12547 -0.48599,0.0644 c -0.2673,0.0354 -0.76544,0.0675 -1.10698,0.0712 -0.75959,0.008 -0.70193,-0.15249 -0.65578,1.82931 l 0.0377,1.61998 -0.24224,0.28349 -0.24223,0.2835 -2.21621,0.0247 -2.21621,0.0248 0.0195,1.10923 c 0.0108,0.61007 0.0419,1.4555 0.0692,1.87872 l 0.0496,0.76948 0.29533,0.25903 c 0.16243,0.14247 0.53856,0.47052 0.83584,0.729 0.74022,0.64362 1.6728,1.68128 1.73549,1.93106 0.065,0.25898 -0.12637,0.48629 -0.4667,0.55436 l -0.2479,0.0496 -1.14519,-1.06355 c -1.4056,-1.30539 -1.86509,-1.79061 -2.05305,-2.16804 l -0.14513,-0.2914 -0.0256,-1.88323 -0.0256,-1.88322 -2.03984,-8e-5 -2.03984,-7e-5 0.0262,1.31631 0.0262,1.3163 0.16621,0.2835 c 0.0914,0.15592 0.17008,0.41848 0.1748,0.58346 l 0.009,0.29996 -0.23644,0.24678 -0.23643,0.24678 h -0.29082 c -0.70363,0 -1.13675,-0.69488 -0.843,-1.35246 l 0.1376,-0.30802 0.012,-1.09348 c 0.007,-0.60142 0.0397,-1.18822 0.0735,-1.304 l 0.0615,-0.21052 -2.05093,-0.0451 c -1.12802,-0.0248 -2.05602,-0.0394 -2.06222,-0.0325 -0.006,0.007 0.0226,0.86473 0.064,1.90627 l 0.0753,1.89368 -0.15281,0.30886 -0.15282,0.30886 1.1964,1.17136 c 0.65802,0.64425 1.25468,1.28405 1.3259,1.42179 l 0.1295,0.25042 0.42335,-0.23818 c 1.77415,-0.99813 4.14286,-0.007 4.64226,1.94225 l 0.13411,0.52345 -0.0525,0.56491 c -0.13048,1.40394 -1.05315,2.45135 -2.42908,2.75746 l -0.59617,0.13264 -0.47563,-0.0876 c -1.47845,-0.27247 -2.513,-1.41409 -2.5991,-2.86807 l -0.0391,-0.6606 0.17941,-0.64799 c 0.0987,-0.35639 0.19752,-0.71113 0.21963,-0.78829 0.0276,-0.0963 -0.0246,-0.16496 -0.16643,-0.21888 -0.11365,-0.0432 -0.24546,-0.1511 -0.29291,-0.23976 -0.10877,-0.20324 -1.89714,-2.11981 -2.0664,-2.21454 -0.21462,-0.1201 -0.95016,0.45006 -1.989428,1.54213 l -0.96975,1.01901 0.12378,0.16667 c 0.0681,0.0917 0.22277,0.36714 0.34377,0.61216 l 0.22001,0.4455 -0.001,0.80999 -10e-4,0.80999 -0.21441,0.45968 c -0.41947,0.89928 -1.15751,1.48295 -2.17992,1.72395 -0.28571,0.0673 -0.55593,0.11872 -0.60047,0.11417 -0.0446,-0.005 -0.27323,-0.0403 -0.50817,-0.0794 z m 0.90281,-1.36353 c 0.3973,-0.0922 0.8084,-0.48853 1.07777,-1.0391 l 0.21002,-0.42927 -0.0443,-0.48838 c -0.0573,-0.63164 -0.3092,-1.01576 -0.86435,-1.31791 l -0.42372,-0.23062 -0.50956,0.0325 -0.50957,0.0325 -0.29141,0.22227 c -1.53176,1.16833 -0.48851,3.64585 1.3551,3.21811 z m 10.868248,-0.21244 c 1.20722,-0.78504 1.17946,-2.44727 -0.0511,-3.06049 -1.23729,-0.61657 -2.52579,0.33159 -2.40644,1.77082 l 0.0374,0.45043 0.2361,0.33519 c 0.32226,0.45752 0.82533,0.71212 1.4071,0.71212 h 0.45704 z m 3.49707,-13.33863 4.3111,-0.0207 -0.0372,-1.86297 c -0.0204,-1.02464 -0.0377,-5.42264 -0.0384,-9.77333 l -0.001,-7.91035 -3.17921,0.0443 -3.17921,0.0443 -0.16199,-0.18155 -0.162,-0.18155 0.0242,-3.3732 0.0242,-3.3732 h -8.2253 -8.225308 l -2e-5,12.72486 c -1e-5,6.99868 0.0239,13.00863 0.0533,13.35547 l 0.0533,0.6306 7.21635,-0.051 c 3.968988,-0.028 9.156348,-0.0603 11.527448,-0.0716 z m -9.31983,-4.1043 -4.765738,-0.0473 -0.19545,-0.22726 c -0.23643,-0.27493 -0.24869,-0.5337 -0.038,-0.80159 l 0.15749,-0.20022 2.81922,-0.0462 c 2.853258,-0.0467 7.792958,0.0449 8.610648,0.1597 l 0.4455,0.0625 0.0273,0.19289 c 0.0379,0.26804 -0.22954,0.73968 -0.47276,0.8337 -0.2971,0.11485 -1.30277,0.1261 -6.58823,0.0737 z m -4.962238,-3.19813 c -0.33753,-0.33753 -0.34729,-0.55615 -0.0386,-0.86482 l 0.23677,-0.23676 h 1.08841 c 0.59863,0 1.25462,-0.0228 1.45777,-0.0506 l 0.369348,-0.0506 0.20894,0.20895 c 0.14769,0.14768 0.20895,0.29496 0.20895,0.50235 v 0.29341 l -0.23677,0.23676 -0.236768,0.23677 h -1.39131 -1.39131 z m 6.865558,0.1944 -1.24244,-0.0405 -0.19529,-0.22727 c -0.37068,-0.43135 -0.11216,-1.13156 0.41736,-1.13042 0.1308,2.4e-4 1.0944,0.0293 2.14131,0.0644 l 1.90347,0.0639 0.26325,0.26239 c 0.30597,0.30499 0.34938,0.66153 0.10723,0.88068 l -0.15602,0.14119 -0.99822,0.0131 c -0.54902,0.007 -1.55731,-0.005 -2.24065,-0.0274 z m -6.530418,-2.82456 c -0.52138,-0.11176 -0.7434,-0.74379 -0.38268,-1.08939 l 0.22786,-0.2183 3.493598,0.0228 3.4936,0.0228 0.19877,0.18674 c 0.24591,0.23102 0.30165,0.49268 0.17109,0.80318 l -0.10004,0.23793 -0.26204,0.0524 c -0.3343,0.0669 -6.520118,0.0504 -6.840158,-0.0182 z m 9.303728,-0.2048 c -0.33051,-0.33052 -0.34027,-0.44506 -0.0657,-0.77137 l 0.2097,-0.24922 h 1.64488 1.64489 l 0.25139,0.28632 c 0.2949,0.33587 0.31263,0.50496 0.0835,0.79625 l -0.16788,0.21342 h -1.6627 -1.6627 z m -8.221448,-2.96052 c -1.40511,-0.0495 -1.47239,-0.0737 -1.62555,-0.58494 l -0.0955,-0.31869 0.21853,-0.21845 0.21852,-0.21844 1.45291,0.0107 c 1.643088,0.0121 1.795918,0.035 1.966578,0.2955 0.36362,0.55496 0.0445,1.1342 -0.603288,1.0951 -0.14772,-0.009 -0.83722,-0.0363 -1.53222,-0.0608 z m 8.432048,0.0253 c -0.48645,-0.082 -0.57114,-0.12636 -0.6936,-0.36318 -0.15108,-0.29215 -0.1113,-0.52607 0.13429,-0.78968 l 0.17593,-0.18884 1.90193,0.0433 1.90193,0.0433 0.19324,0.18153 c 0.25362,0.23827 0.26527,0.71091 0.0229,0.93049 l -0.1703,0.1543 -1.63193,0.0115 c -0.89755,0.006 -1.72305,-0.004 -1.83442,-0.0227 z m -4.12849,-0.13291 c -0.11003,-0.0557 -0.25462,-0.19845 -0.32133,-0.31728 l -0.12127,-0.21607 0.0792,-0.22826 c 0.0461,-0.13294 0.19721,-0.28928 0.36182,-0.37438 l 0.28262,-0.14612 0.486,0.0507 c 0.78571,0.082 1.15329,0.70824 0.68849,1.17304 l -0.162,0.162 -0.54674,-0.001 c -0.30071,-7.7e-4 -0.63677,-0.0467 -0.74679,-0.10242 z m -2.1599,-3.11507 -0.496968,-0.0285 -0.14697,-0.1624 c -0.18767,-0.20736 -0.18757,-0.61781 2.4e-4,-0.90317 l 0.14631,-0.22234 2.927158,0.0497 2.92717,0.0497 0.17846,0.11131 c 0.35581,0.22194 0.33664,0.95028 -0.0286,1.08917 -0.18551,0.0705 -4.34833,0.0831 -5.5067,0.0166 z m -3.504668,-3.27966 c -0.10708,-0.0567 -0.2658,-0.19889 -0.35272,-0.31598 l -0.15802,-0.21291 0.13623,-0.28708 c 0.0838,-0.17653 0.24601,-0.33917 0.42132,-0.42236 l 0.2851,-0.13529 0.37688,0.0539 c 0.57705,0.0826 1.13786,0.0754 2.725858,-0.0348 0.80189,-0.0556 1.8846,-0.0846 2.40602,-0.0644 l 0.94803,0.0368 0.21297,0.13954 c 0.43643,0.28596 0.55017,0.99221 0.19077,1.18456 l -0.16875,0.0903 -0.50517,-0.088 c -0.96557,-0.16814 -5.153988,-0.0889 -6.121328,0.11583 -0.11137,0.0236 -0.29011,-0.003 -0.39719,-0.0602 z m 17.104308,-1.8335 c 0.0347,-0.0347 -0.0422,-0.20626 -0.17093,-0.3813 -0.30298,-0.41207 -3.0009,-3.19371 -3.09759,-3.19371 -0.071,0 -0.11044,3.5811 -0.0402,3.6517 0.0611,0.0614 3.2444,-0.0124 3.30872,-0.0767 z m 10.57922,34.19812 c -0.47863,-0.30155 -0.60414,-0.95138 -0.27947,-1.4469 0.39535,-0.60337 1.34164,-0.10341 1.34245,0.70926 l 3.1e-4,0.30247 -0.22275,0.24138 c -0.27977,0.30318 -0.5632,0.36853 -0.84054,0.19379 z m -28.522838,-6.49432 c -0.33058,-0.21798 -0.45906,-0.42455 -0.4616,-0.7422 -0.007,-0.87632 0.93602,-1.19757 1.52991,-0.52117 l 0.24919,0.28381 v 0.28877 0.28878 l -0.2754,0.2754 -0.2754,0.27539 -0.27134,-7.7e-4 c -0.14925,-3e-4 -0.37215,-0.067 -0.49536,-0.14824 z m -17.10353,-5.21174 -0.2246,-0.19319 0.0113,-2.65227 c 0.006,-1.45875 0.033,-2.70875 0.0595,-2.77778 0.0867,-0.2259 0.36189,-0.2455 2.7976,-0.19928 l 2.40704,0.0457 0.14121,0.14142 0.14121,0.14143 -0.015,2.72798 -0.015,2.72798 -0.10332,0.0656 c -0.0568,0.0361 -1.06923,0.0665 -2.24979,0.0677 -1.18056,0.001 -2.27678,0.0237 -2.43605,0.05 l -0.28958,0.0479 z m 45.010468,-1.66614 c -0.0342,-0.12251 -0.0548,-1.02391 -0.0457,-2.00312 l 0.0166,-1.78039 0.13798,-0.10089 0.13797,-0.10089 1.69997,0.0159 1.69997,0.0159 0.19494,0.15334 0.19493,0.15334 -0.0245,1.81991 -0.0245,1.81992 -0.15723,0.11484 -0.15722,0.11485 h -1.80546 -1.80545 z m -43.437228,-8.85549 c -0.79317,-0.35863 -1.21875,-0.99566 -1.27872,-1.91409 -0.0707,-1.08256 0.1989,-1.66663 0.96524,-2.09107 l 0.43498,-0.24092 0.64799,0.002 0.648,0.002 0.32399,0.17375 c 0.42962,0.23039 0.80398,0.63184 1.00613,1.07893 l 0.1648,0.3645 0.002,0.65806 c 0.004,1.45796 -0.61062,2.13285 -1.94219,2.13285 h -0.6075 z m 44.445148,0.0903 c -0.86604,-0.16776 -1.32805,-1.55383 -1.04044,-3.1214 l 0.0892,-0.486 0.25987,-0.22141 c 0.14294,-0.12178 0.43888,-0.28088 0.65766,-0.35354 l 0.39778,-0.13212 0.74486,0.0326 0.74486,0.0326 0.37545,0.22002 c 0.70356,0.41232 0.93357,1.02567 0.84018,2.24054 -0.0704,0.91549 -0.16184,1.22227 -0.44549,1.49402 l -0.23692,0.22698 -0.8376,0.0694 c -0.96451,0.0799 -1.12952,0.0797 -1.54938,-0.002 z m -44.587468,-8.81965 c -1.11413,-0.321 -1.56876,-2.5151 -0.73159,-3.53073 0.84693,-1.02747 3.0161,-0.74191 3.50851,0.46188 l 0.14039,0.34321 0.0392,1.17448 0.0392,1.17449 -0.17708,0.22274 -0.17708,0.22276 -1.22935,-0.008 c -0.67614,-0.004 -1.31163,-0.0318 -1.41218,-0.0607 z m 43.637378,-0.13512 -0.12012,-0.14453 -0.0247,-1.77634 c -0.0166,-1.1946 0.004,-1.81108 0.0633,-1.88242 l 0.088,-0.10608 1.65402,-0.0591 c 1.87329,-0.0669 2.01606,-0.0485 2.18675,0.28157 l 0.12297,0.23781 v 1.61821 1.61821 l -0.12728,0.12729 -0.12728,0.12729 h -1.07526 c -0.59139,0 -1.40041,0.0231 -1.79782,0.0513 l -0.72256,0.0513 z m -3.95085,-1.1309 c -0.65367,-0.55002 -0.44558,-1.548 0.35621,-1.70836 l 0.24557,-0.0491 0.26065,0.21933 c 0.53556,0.45064 0.65274,1.05648 0.28813,1.48979 l -0.20969,0.24921 h -0.35108 -0.35108 z m -39.260708,-6.82415 -1.78198,-0.0219 -0.14174,-0.17096 -0.14175,-0.17096 v -2.56751 -2.56751 l 0.11488,-0.15723 0.11488,-0.15723 2.46197,-0.0236 2.46197,-0.0235 0.21979,0.17288 0.21979,0.17288 -0.0153,2.48988 c -0.008,1.36943 0.009,2.52934 0.0389,2.57758 0.0298,0.0482 0.0184,0.18189 -0.0254,0.297 l -0.0796,0.20929 -0.83224,-0.0186 c -0.45774,-0.0102 -1.63414,-0.0284 -2.61422,-0.0405 z m 5.87443,-1.29776 c -0.18826,-0.0947 -0.31826,-0.23943 -0.39253,-0.43696 l -0.11105,-0.29534 0.14021,-0.29547 c 0.47837,-1.00809 1.92076,-0.34339 1.49345,0.68823 -0.19733,0.4764 -0.61101,0.60069 -1.13008,0.33954 z"
       id="path2675" /><text
       xml:space="preserve"
       style="font-size:8.46667px;fill:#1a0f01;fill-opacity:1;stroke-width:0.264583;filter:url(#filter7640)"
       x="82.83622"
       y="181.88739"
       id="text4259"
       transform="matrix(0.80542598,0,0,0.80542598,10.574507,13.583027)"><tspan
         sodipodi:role="line"
         id="tspan4257"
         style="font-style:normal;font-variant:normal;font-weight:bold;font-stretch:semi-condensed;font-size:8.46667px;font-family:'Nimbus Sans Narrow';-inkscape-font-specification:'Nimbus Sans Narrow Bold Semi-Condensed';fill:#1a0f01;fill-opacity:1;stroke-width:0.264583"
         x="82.83622"
         y="181.88739">JSON &gt; key - value</tspan></text><text
       xml:space="preserve"
       style="font-size:6.81928px;fill:#f5b159;fill-opacity:1;stroke-width:0.213102"
       x="77.469872"
       y="160.26643"
       id="text5765"><tspan
         sodipodi:role="line"
         id="tspan5763"
         style="font-style:normal;font-variant:normal;font-weight:bold;font-stretch:semi-condensed;font-size:6.81928px;font-family:'Nimbus Sans Narrow';-inkscape-font-specification:'Nimbus Sans Narrow Bold Semi-Condensed';fill:#f5b159;fill-opacity:1;stroke-width:0.213102"
         x="77.469872"
         y="160.26643">JSON &gt; key - value</tspan></text></g></svg>
